<svg width="68" height="49" viewBox="0 0 68 49" fill="none" xmlns="http://www.w3.org/2000/svg">
<path d="M45.4728 36.1395C44.7846 36.1395 44.2917 35.9907 43.9941 35.6931C43.6965 35.3769 43.5477 34.791 43.5477 33.9354C43.5477 33.3588 43.6035 32.6613 43.7151 31.8429C43.8267 31.0245 44.022 29.7876 44.301 28.1322C44.3382 27.909 44.487 27.0069 44.7474 25.4259C45.0078 23.8263 45.2403 22.1523 45.4449 20.4039C45.6309 18.9159 45.7239 17.7999 45.7239 17.0559C45.7239 16.2189 45.417 15.8004 44.8032 15.8004C44.3382 15.8004 43.7523 16.0515 43.0455 16.5537C42.3573 17.0373 41.6133 17.8185 40.8135 18.8973C40.5531 19.2507 40.2648 19.4274 39.9486 19.4274C39.6882 19.4274 39.4557 19.3065 39.2511 19.0647C39.0651 18.8043 38.9721 18.516 38.9721 18.1998C38.9721 17.8836 39.0279 17.586 39.1395 17.307C39.2511 17.0094 39.4557 16.656 39.7533 16.2468C40.6647 15.0006 41.6784 14.0427 42.7944 13.3731C43.9104 12.6849 45.0822 12.3408 46.3098 12.3408C47.3328 12.3408 48.0954 12.657 48.5976 13.2894C49.1184 13.9218 49.3788 14.8425 49.3788 16.0515C49.3788 17.1303 49.23 18.6927 48.9324 20.7387C49.8624 17.9859 51.0435 15.9027 52.4757 14.4891C53.9079 13.0569 55.5912 12.3408 57.5256 12.3408C59.0508 12.3408 60.1947 12.7779 60.9573 13.6521C61.7385 14.5077 62.1291 15.6609 62.1291 17.1117C62.1291 17.9301 62.0082 18.9252 61.7664 20.097L60.0645 28.0764C59.8785 29.0064 59.7855 29.8062 59.7855 30.4758C59.7855 31.257 59.9622 31.8429 60.3156 32.2335C60.6876 32.6241 61.1991 32.8194 61.8501 32.8194C62.4639 32.8194 63.0591 32.6148 63.6357 32.2056C64.2309 31.7964 64.9284 31.1175 65.7282 30.1689C65.9514 29.9085 66.2025 29.7783 66.4815 29.7783C66.7233 29.7783 66.9093 29.8899 67.0395 30.1131C67.1883 30.3363 67.2627 30.6432 67.2627 31.0338C67.2627 31.7592 67.086 32.3358 66.7326 32.7636C65.7654 33.9354 64.8075 34.791 63.8589 35.3304C62.9103 35.8698 61.9152 36.1395 60.8736 36.1395C59.2926 36.1395 58.0557 35.6745 57.1629 34.7445C56.2701 33.7959 55.8237 32.5311 55.8237 30.9501C55.8237 30.3363 55.8702 29.6667 55.9632 28.9413C56.0748 28.2159 56.2515 27.2952 56.4933 26.1792L57.6093 21.0735C57.6465 20.9061 57.7116 20.6085 57.8046 20.1807C57.8976 19.7529 57.972 19.353 58.0278 18.981C58.0836 18.5904 58.1115 18.2091 58.1115 17.8371C58.1115 17.2419 57.9441 16.7676 57.6093 16.4142C57.2745 16.0608 56.8002 15.8841 56.1864 15.8841C55.0704 15.8841 53.9544 16.4793 52.8384 17.6697C51.7224 18.8601 50.6901 20.7852 49.7415 23.445C48.7929 26.0862 48.0489 29.4714 47.5095 33.6006C47.3793 34.5492 47.184 35.2095 46.9236 35.5815C46.6818 35.9535 46.1982 36.1395 45.4728 36.1395Z" fill="#DDF4EF"/>
<path d="M41.5946 29.7783C41.8364 29.7783 42.0224 29.8899 42.1526 30.1131C42.3014 30.3363 42.3758 30.6432 42.3758 31.0338C42.3758 31.7592 42.1991 32.3358 41.8457 32.7636C40.8041 34.0098 39.7904 34.884 38.8046 35.3862C37.8374 35.8884 36.6656 36.1395 35.2892 36.1395C34.322 36.1395 33.4292 36.0186 32.6108 35.7768C31.7924 35.535 30.7973 35.1723 29.6255 34.6887C28.5653 34.2237 27.5423 33.8424 26.5565 33.5448C25.6079 35.2746 24.185 36.1395 22.2878 36.1395C21.2462 36.1395 20.4185 35.907 19.8047 35.442C19.1723 34.9584 18.8561 34.3446 18.8561 33.6006C18.8561 32.6892 19.2932 31.9359 20.1674 31.3407C21.0416 30.7269 22.2041 30.42 23.6549 30.42H24.0176L24.5198 22.3011C24.6314 20.4411 24.9662 18.9066 25.5242 17.6976C26.0822 16.4886 26.8541 15.4563 27.8399 14.6007C28.6955 13.8567 29.672 13.2987 30.7694 12.9267C31.8668 12.5361 33.0293 12.3408 34.2569 12.3408C36.2657 12.3408 37.8095 12.8616 38.8883 13.9032C39.9671 14.9448 40.5065 16.3026 40.5065 17.9766C40.5065 19.1112 40.3019 20.0319 39.8927 20.7387C39.4835 21.4269 38.9162 21.771 38.1908 21.771C37.67 21.771 37.2608 21.6501 36.9632 21.4083C36.6656 21.1479 36.5168 20.7852 36.5168 20.3202C36.5168 20.1528 36.554 19.8459 36.6284 19.3995C36.74 18.8787 36.7958 18.4137 36.7958 18.0045C36.7958 17.2233 36.5633 16.6095 36.0983 16.1631C35.6519 15.6981 34.9637 15.4656 34.0337 15.4656C32.3969 15.4656 31.1321 16.005 30.2393 17.0838C29.3465 18.144 28.7792 19.818 28.5374 22.1058L27.8957 28.4391C27.8027 29.3319 27.6818 30.1038 27.533 30.7548C28.7234 30.9594 30.2114 31.2849 31.997 31.7313C33.0386 31.9917 33.8384 32.1777 34.3964 32.2893C34.9544 32.4009 35.4473 32.4567 35.8751 32.4567C36.9539 32.4567 37.8746 32.28 38.6372 31.9266C39.4184 31.5546 40.1531 30.9687 40.8413 30.1689C41.0645 29.9085 41.3156 29.7783 41.5946 29.7783Z" fill="#DDF4EF"/>
<path d="M21.0645 30.9222C21.3435 30.8106 21.576 30.7548 21.762 30.7548C22.0596 30.7548 22.2828 30.8664 22.4316 31.0896C22.5804 31.3128 22.6548 31.6011 22.6548 31.9545C22.6548 32.5125 22.5153 32.9868 22.2363 33.3774C21.9759 33.768 21.5202 34.1214 20.8692 34.4376C19.7718 34.9584 18.3489 35.3769 16.6005 35.6931C14.8521 35.9907 13.1316 36.1395 11.439 36.1395C9.0954 36.1395 7.1331 35.8791 5.5521 35.3583C3.9711 34.8189 2.79 34.0842 2.0088 33.1542C1.2462 32.2242 0.8649 31.1733 0.8649 30.0015C0.8649 28.4019 1.3764 27.0441 2.3994 25.9281C3.441 24.7935 4.9662 23.9751 6.975 23.4729C5.8776 23.1567 5.0313 22.5987 4.4361 21.7989C3.8595 20.9991 3.5712 20.1063 3.5712 19.1205C3.5712 17.7813 3.9897 16.6002 4.8267 15.5772C5.6823 14.5356 6.8262 13.7358 8.2584 13.1778C9.6906 12.6198 11.2623 12.3408 12.9735 12.3408C15.2799 12.3408 17.0097 12.843 18.1629 13.8474C19.3161 14.8332 19.8927 16.1166 19.8927 17.6976C19.8927 18.795 19.6881 19.6878 19.2789 20.376C18.8883 21.0456 18.321 21.3804 17.577 21.3804C17.0562 21.3804 16.647 21.2688 16.3494 21.0456C16.0518 20.8038 15.903 20.4504 15.903 19.9854C15.903 19.6692 15.9495 19.3251 16.0425 18.9531C16.1355 18.3393 16.182 17.9208 16.182 17.6976C16.182 17.028 15.9309 16.4886 15.4287 16.0794C14.9265 15.6516 14.0895 15.4377 12.9177 15.4377C11.3367 15.4377 10.0719 15.7725 9.1233 16.4421C8.1747 17.1117 7.7004 18.0138 7.7004 19.1484C7.7004 20.0226 8.0538 20.748 8.7606 21.3246C9.486 21.8826 10.6578 22.1895 12.276 22.2453C12.6852 22.2639 12.9735 22.3569 13.1409 22.5243C13.3083 22.6917 13.392 22.9707 13.392 23.3613C13.392 24.5889 12.834 25.212 11.718 25.2306C10.1742 25.2678 8.8908 25.4817 7.8678 25.8723C6.8634 26.2629 6.1287 26.7651 5.6637 27.3789C5.2173 27.9741 4.9941 28.6158 4.9941 29.304C4.9941 30.4572 5.5335 31.3314 6.6123 31.9266C7.6911 32.5032 9.4023 32.7915 11.7459 32.7915C13.2897 32.7915 14.9172 32.6148 16.6284 32.2614C18.3582 31.8894 19.8369 31.443 21.0645 30.9222Z" fill="#DDF4EF"/>
<mask id="path-4-outside-1_7_27" maskUnits="userSpaceOnUse" x="28" y="28" width="40" height="9" fill="black">
<rect fill="white" x="28" y="28" width="40" height="9"/>
<path d="M32.12 36C31.9333 36 31.78 35.9433 31.66 35.83C31.54 35.71 31.48 35.5633 31.48 35.39V29.59H32.78V35.39C32.78 35.5633 32.7167 35.71 32.59 35.83C32.47 35.9433 32.3133 36 32.12 36ZM29.91 30.15C29.7367 30.15 29.59 30.0967 29.47 29.99C29.3567 29.8833 29.3 29.7433 29.3 29.57C29.3 29.3967 29.3567 29.26 29.47 29.16C29.59 29.0533 29.7367 29 29.91 29H34.35C34.5233 29 34.6667 29.0533 34.78 29.16C34.9 29.2667 34.96 29.4067 34.96 29.58C34.96 29.7533 34.9 29.8933 34.78 30C34.6667 30.1 34.5233 30.15 34.35 30.15H29.91ZM43.5545 32.5C43.5545 33 43.4711 33.4667 43.3045 33.9C43.1378 34.3333 42.9011 34.7167 42.5945 35.05C42.2945 35.3767 41.9345 35.6333 41.5145 35.82C41.1011 36.0067 40.6478 36.1 40.1545 36.1C39.6611 36.1 39.2078 36.0067 38.7945 35.82C38.3811 35.6333 38.0211 35.3767 37.7145 35.05C37.4145 34.7167 37.1811 34.3333 37.0145 33.9C36.8478 33.4667 36.7645 33 36.7645 32.5C36.7645 32 36.8478 31.5333 37.0145 31.1C37.1811 30.6667 37.4145 30.2867 37.7145 29.96C38.0211 29.6267 38.3811 29.3667 38.7945 29.18C39.2078 28.9933 39.6611 28.9 40.1545 28.9C40.6478 28.9 41.1011 28.9933 41.5145 29.18C41.9345 29.3667 42.2945 29.6267 42.5945 29.96C42.9011 30.2867 43.1378 30.6667 43.3045 31.1C43.4711 31.5333 43.5545 32 43.5545 32.5ZM42.2545 32.5C42.2545 32.0533 42.1645 31.65 41.9845 31.29C41.8045 30.9233 41.5578 30.6333 41.2445 30.42C40.9311 30.2067 40.5678 30.1 40.1545 30.1C39.7411 30.1 39.3778 30.2067 39.0645 30.42C38.7511 30.6333 38.5045 30.92 38.3245 31.28C38.1511 31.64 38.0645 32.0467 38.0645 32.5C38.0645 32.9467 38.1511 33.3533 38.3245 33.72C38.5045 34.08 38.7511 34.3667 39.0645 34.58C39.3778 34.7933 39.7411 34.9 40.1545 34.9C40.5678 34.9 40.9311 34.7933 41.2445 34.58C41.5578 34.3667 41.8045 34.08 41.9845 33.72C42.1645 33.3533 42.2545 32.9467 42.2545 32.5ZM52.4423 32.5C52.4423 33 52.359 33.4667 52.1923 33.9C52.0257 34.3333 51.789 34.7167 51.4823 35.05C51.1823 35.3767 50.8223 35.6333 50.4023 35.82C49.989 36.0067 49.5357 36.1 49.0423 36.1C48.549 36.1 48.0957 36.0067 47.6823 35.82C47.269 35.6333 46.909 35.3767 46.6023 35.05C46.3023 34.7167 46.069 34.3333 45.9023 33.9C45.7357 33.4667 45.6523 33 45.6523 32.5C45.6523 32 45.7357 31.5333 45.9023 31.1C46.069 30.6667 46.3023 30.2867 46.6023 29.96C46.909 29.6267 47.269 29.3667 47.6823 29.18C48.0957 28.9933 48.549 28.9 49.0423 28.9C49.5357 28.9 49.989 28.9933 50.4023 29.18C50.8223 29.3667 51.1823 29.6267 51.4823 29.96C51.789 30.2867 52.0257 30.6667 52.1923 31.1C52.359 31.5333 52.4423 32 52.4423 32.5ZM51.1423 32.5C51.1423 32.0533 51.0523 31.65 50.8723 31.29C50.6923 30.9233 50.4457 30.6333 50.1323 30.42C49.819 30.2067 49.4557 30.1 49.0423 30.1C48.629 30.1 48.2657 30.2067 47.9523 30.42C47.639 30.6333 47.3923 30.92 47.2123 31.28C47.039 31.64 46.9523 32.0467 46.9523 32.5C46.9523 32.9467 47.039 33.3533 47.2123 33.72C47.3923 34.08 47.639 34.3667 47.9523 34.58C48.2657 34.7933 48.629 34.9 49.0423 34.9C49.4557 34.9 49.819 34.7933 50.1323 34.58C50.4457 34.3667 50.6923 34.08 50.8723 33.72C51.0523 33.3533 51.1423 32.9467 51.1423 32.5ZM58.7502 34.83C58.9236 34.83 59.0669 34.8867 59.1802 35C59.3002 35.1067 59.3602 35.2467 59.3602 35.42C59.3602 35.5867 59.3002 35.7267 59.1802 35.84C59.0669 35.9467 58.9236 36 58.7502 36H55.5002C55.3269 36 55.1802 35.9433 55.0602 35.83C54.9469 35.71 54.8902 35.5633 54.8902 35.39V29.61C54.8902 29.4367 54.9502 29.2933 55.0702 29.18C55.1902 29.06 55.3436 29 55.5302 29C55.6902 29 55.8302 29.06 55.9502 29.18C56.0769 29.2933 56.1402 29.4367 56.1402 29.61V35L55.9202 34.83H58.7502ZM64.0555 36.1C63.5888 36.1 63.1688 36.0433 62.7955 35.93C62.4221 35.81 62.0655 35.6033 61.7255 35.31C61.6388 35.2367 61.5721 35.1533 61.5255 35.06C61.4788 34.9667 61.4555 34.8733 61.4555 34.78C61.4555 34.6267 61.5088 34.4933 61.6155 34.38C61.7288 34.26 61.8688 34.2 62.0355 34.2C62.1621 34.2 62.2755 34.24 62.3755 34.32C62.6288 34.5267 62.8788 34.6833 63.1255 34.79C63.3788 34.8967 63.6888 34.95 64.0555 34.95C64.3021 34.95 64.5288 34.9133 64.7355 34.84C64.9421 34.76 65.1088 34.6567 65.2355 34.53C65.3621 34.3967 65.4255 34.2467 65.4255 34.08C65.4255 33.88 65.3655 33.71 65.2455 33.57C65.1255 33.43 64.9421 33.3133 64.6955 33.22C64.4488 33.12 64.1355 33.0433 63.7555 32.99C63.3955 32.9367 63.0788 32.8567 62.8055 32.75C62.5321 32.6367 62.3021 32.4967 62.1155 32.33C61.9355 32.1567 61.7988 31.9567 61.7055 31.73C61.6121 31.4967 61.5655 31.2367 61.5655 30.95C61.5655 30.5167 61.6755 30.1467 61.8955 29.84C62.1221 29.5333 62.4255 29.3 62.8055 29.14C63.1855 28.98 63.6055 28.9 64.0655 28.9C64.4988 28.9 64.8988 28.9667 65.2655 29.1C65.6388 29.2267 65.9421 29.39 66.1755 29.59C66.3688 29.7433 66.4655 29.92 66.4655 30.12C66.4655 30.2667 66.4088 30.4 66.2955 30.52C66.1821 30.64 66.0488 30.7 65.8955 30.7C65.7955 30.7 65.7055 30.67 65.6255 30.61C65.5188 30.5167 65.3755 30.43 65.1955 30.35C65.0155 30.2633 64.8255 30.1933 64.6255 30.14C64.4255 30.08 64.2388 30.05 64.0655 30.05C63.7788 30.05 63.5355 30.0867 63.3355 30.16C63.1421 30.2333 62.9955 30.3333 62.8955 30.46C62.7955 30.5867 62.7455 30.7333 62.7455 30.9C62.7455 31.1 62.8021 31.2667 62.9155 31.4C63.0355 31.5267 63.2055 31.63 63.4255 31.71C63.6455 31.7833 63.9088 31.85 64.2155 31.91C64.6155 31.9833 64.9655 32.07 65.2655 32.17C65.5721 32.27 65.8255 32.4 66.0255 32.56C66.2255 32.7133 66.3755 32.91 66.4755 33.15C66.5755 33.3833 66.6255 33.67 66.6255 34.01C66.6255 34.4433 66.5055 34.8167 66.2655 35.13C66.0255 35.4433 65.7088 35.6833 65.3155 35.85C64.9288 36.0167 64.5088 36.1 64.0555 36.1Z"/>
</mask>
<path d="M32.12 36C31.9333 36 31.78 35.9433 31.66 35.83C31.54 35.71 31.48 35.5633 31.48 35.39V29.59H32.78V35.39C32.78 35.5633 32.7167 35.71 32.59 35.83C32.47 35.9433 32.3133 36 32.12 36ZM29.91 30.15C29.7367 30.15 29.59 30.0967 29.47 29.99C29.3567 29.8833 29.3 29.7433 29.3 29.57C29.3 29.3967 29.3567 29.26 29.47 29.16C29.59 29.0533 29.7367 29 29.91 29H34.35C34.5233 29 34.6667 29.0533 34.78 29.16C34.9 29.2667 34.96 29.4067 34.96 29.58C34.96 29.7533 34.9 29.8933 34.78 30C34.6667 30.1 34.5233 30.15 34.35 30.15H29.91ZM43.5545 32.5C43.5545 33 43.4711 33.4667 43.3045 33.9C43.1378 34.3333 42.9011 34.7167 42.5945 35.05C42.2945 35.3767 41.9345 35.6333 41.5145 35.82C41.1011 36.0067 40.6478 36.1 40.1545 36.1C39.6611 36.1 39.2078 36.0067 38.7945 35.82C38.3811 35.6333 38.0211 35.3767 37.7145 35.05C37.4145 34.7167 37.1811 34.3333 37.0145 33.9C36.8478 33.4667 36.7645 33 36.7645 32.5C36.7645 32 36.8478 31.5333 37.0145 31.1C37.1811 30.6667 37.4145 30.2867 37.7145 29.96C38.0211 29.6267 38.3811 29.3667 38.7945 29.18C39.2078 28.9933 39.6611 28.9 40.1545 28.9C40.6478 28.9 41.1011 28.9933 41.5145 29.18C41.9345 29.3667 42.2945 29.6267 42.5945 29.96C42.9011 30.2867 43.1378 30.6667 43.3045 31.1C43.4711 31.5333 43.5545 32 43.5545 32.5ZM42.2545 32.5C42.2545 32.0533 42.1645 31.65 41.9845 31.29C41.8045 30.9233 41.5578 30.6333 41.2445 30.42C40.9311 30.2067 40.5678 30.1 40.1545 30.1C39.7411 30.1 39.3778 30.2067 39.0645 30.42C38.7511 30.6333 38.5045 30.92 38.3245 31.28C38.1511 31.64 38.0645 32.0467 38.0645 32.5C38.0645 32.9467 38.1511 33.3533 38.3245 33.72C38.5045 34.08 38.7511 34.3667 39.0645 34.58C39.3778 34.7933 39.7411 34.9 40.1545 34.9C40.5678 34.9 40.9311 34.7933 41.2445 34.58C41.5578 34.3667 41.8045 34.08 41.9845 33.72C42.1645 33.3533 42.2545 32.9467 42.2545 32.5ZM52.4423 32.5C52.4423 33 52.359 33.4667 52.1923 33.9C52.0257 34.3333 51.789 34.7167 51.4823 35.05C51.1823 35.3767 50.8223 35.6333 50.4023 35.82C49.989 36.0067 49.5357 36.1 49.0423 36.1C48.549 36.1 48.0957 36.0067 47.6823 35.82C47.269 35.6333 46.909 35.3767 46.6023 35.05C46.3023 34.7167 46.069 34.3333 45.9023 33.9C45.7357 33.4667 45.6523 33 45.6523 32.5C45.6523 32 45.7357 31.5333 45.9023 31.1C46.069 30.6667 46.3023 30.2867 46.6023 29.96C46.909 29.6267 47.269 29.3667 47.6823 29.18C48.0957 28.9933 48.549 28.9 49.0423 28.9C49.5357 28.9 49.989 28.9933 50.4023 29.18C50.8223 29.3667 51.1823 29.6267 51.4823 29.96C51.789 30.2867 52.0257 30.6667 52.1923 31.1C52.359 31.5333 52.4423 32 52.4423 32.5ZM51.1423 32.5C51.1423 32.0533 51.0523 31.65 50.8723 31.29C50.6923 30.9233 50.4457 30.6333 50.1323 30.42C49.819 30.2067 49.4557 30.1 49.0423 30.1C48.629 30.1 48.2657 30.2067 47.9523 30.42C47.639 30.6333 47.3923 30.92 47.2123 31.28C47.039 31.64 46.9523 32.0467 46.9523 32.5C46.9523 32.9467 47.039 33.3533 47.2123 33.72C47.3923 34.08 47.639 34.3667 47.9523 34.58C48.2657 34.7933 48.629 34.9 49.0423 34.9C49.4557 34.9 49.819 34.7933 50.1323 34.58C50.4457 34.3667 50.6923 34.08 50.8723 33.72C51.0523 33.3533 51.1423 32.9467 51.1423 32.5ZM58.7502 34.83C58.9236 34.83 59.0669 34.8867 59.1802 35C59.3002 35.1067 59.3602 35.2467 59.3602 35.42C59.3602 35.5867 59.3002 35.7267 59.1802 35.84C59.0669 35.9467 58.9236 36 58.7502 36H55.5002C55.3269 36 55.1802 35.9433 55.0602 35.83C54.9469 35.71 54.8902 35.5633 54.8902 35.39V29.61C54.8902 29.4367 54.9502 29.2933 55.0702 29.18C55.1902 29.06 55.3436 29 55.5302 29C55.6902 29 55.8302 29.06 55.9502 29.18C56.0769 29.2933 56.1402 29.4367 56.1402 29.61V35L55.9202 34.83H58.7502ZM64.0555 36.1C63.5888 36.1 63.1688 36.0433 62.7955 35.93C62.4221 35.81 62.0655 35.6033 61.7255 35.31C61.6388 35.2367 61.5721 35.1533 61.5255 35.06C61.4788 34.9667 61.4555 34.8733 61.4555 34.78C61.4555 34.6267 61.5088 34.4933 61.6155 34.38C61.7288 34.26 61.8688 34.2 62.0355 34.2C62.1621 34.2 62.2755 34.24 62.3755 34.32C62.6288 34.5267 62.8788 34.6833 63.1255 34.79C63.3788 34.8967 63.6888 34.95 64.0555 34.95C64.3021 34.95 64.5288 34.9133 64.7355 34.84C64.9421 34.76 65.1088 34.6567 65.2355 34.53C65.3621 34.3967 65.4255 34.2467 65.4255 34.08C65.4255 33.88 65.3655 33.71 65.2455 33.57C65.1255 33.43 64.9421 33.3133 64.6955 33.22C64.4488 33.12 64.1355 33.0433 63.7555 32.99C63.3955 32.9367 63.0788 32.8567 62.8055 32.75C62.5321 32.6367 62.3021 32.4967 62.1155 32.33C61.9355 32.1567 61.7988 31.9567 61.7055 31.73C61.6121 31.4967 61.5655 31.2367 61.5655 30.95C61.5655 30.5167 61.6755 30.1467 61.8955 29.84C62.1221 29.5333 62.4255 29.3 62.8055 29.14C63.1855 28.98 63.6055 28.9 64.0655 28.9C64.4988 28.9 64.8988 28.9667 65.2655 29.1C65.6388 29.2267 65.9421 29.39 66.1755 29.59C66.3688 29.7433 66.4655 29.92 66.4655 30.12C66.4655 30.2667 66.4088 30.4 66.2955 30.52C66.1821 30.64 66.0488 30.7 65.8955 30.7C65.7955 30.7 65.7055 30.67 65.6255 30.61C65.5188 30.5167 65.3755 30.43 65.1955 30.35C65.0155 30.2633 64.8255 30.1933 64.6255 30.14C64.4255 30.08 64.2388 30.05 64.0655 30.05C63.7788 30.05 63.5355 30.0867 63.3355 30.16C63.1421 30.2333 62.9955 30.3333 62.8955 30.46C62.7955 30.5867 62.7455 30.7333 62.7455 30.9C62.7455 31.1 62.8021 31.2667 62.9155 31.4C63.0355 31.5267 63.2055 31.63 63.4255 31.71C63.6455 31.7833 63.9088 31.85 64.2155 31.91C64.6155 31.9833 64.9655 32.07 65.2655 32.17C65.5721 32.27 65.8255 32.4 66.0255 32.56C66.2255 32.7133 66.3755 32.91 66.4755 33.15C66.5755 33.3833 66.6255 33.67 66.6255 34.01C66.6255 34.4433 66.5055 34.8167 66.2655 35.13C66.0255 35.4433 65.7088 35.6833 65.3155 35.85C64.9288 36.0167 64.5088 36.1 64.0555 36.1Z" fill="#1ABC9C"/>
<path d="M31.66 35.83L31.3064 36.1836L31.3115 36.1886L31.3167 36.1935L31.66 35.83ZM31.48 29.59V29.09H30.98V29.59H31.48ZM32.78 29.59H33.28V29.09H32.78V29.59ZM32.59 35.83L32.9333 36.1935L32.9339 36.193L32.59 35.83ZM29.47 29.99L29.1273 30.3541L29.1325 30.359L29.1378 30.3637L29.47 29.99ZM29.47 29.16L29.8008 29.5349L29.8022 29.5337L29.47 29.16ZM34.78 29.16L34.4373 29.5241L34.4425 29.529L34.4478 29.5337L34.78 29.16ZM34.78 30L35.1108 30.3749L35.1122 30.3737L34.78 30ZM32.12 35.5C32.0429 35.5 32.0182 35.4805 32.0033 35.4665L31.3167 36.1935C31.5418 36.4062 31.8237 36.5 32.12 36.5V35.5ZM32.0136 35.4764C31.9895 35.4524 31.98 35.4339 31.98 35.39H30.98C30.98 35.6928 31.0905 35.9676 31.3064 36.1836L32.0136 35.4764ZM31.98 35.39V29.59H30.98V35.39H31.98ZM31.48 30.09H32.78V29.09H31.48V30.09ZM32.28 29.59V35.39H33.28V29.59H32.28ZM32.28 35.39C32.28 35.425 32.2739 35.4407 32.2461 35.467L32.9339 36.193C33.1595 35.9793 33.28 35.7017 33.28 35.39H32.28ZM32.2467 35.4665C32.2352 35.4773 32.209 35.5 32.12 35.5V36.5C32.4176 36.5 32.7048 36.4093 32.9333 36.1935L32.2467 35.4665ZM29.91 29.65C29.8485 29.65 29.823 29.6348 29.8022 29.6163L29.1378 30.3637C29.357 30.5585 29.6248 30.65 29.91 30.65V29.65ZM29.8127 29.6259C29.8091 29.6226 29.8077 29.6206 29.8073 29.62C29.807 29.6195 29.8066 29.6188 29.806 29.6174C29.8051 29.6151 29.8 29.6018 29.8 29.57H28.8C28.8 29.8639 28.9016 30.1417 29.1273 30.3541L29.8127 29.6259ZM29.8 29.57C29.8 29.5379 29.8051 29.5271 29.8044 29.529C29.8041 29.5297 29.8032 29.5315 29.8017 29.5336C29.8003 29.5356 29.7996 29.536 29.8008 29.5349L29.1392 28.7851C28.9019 28.9944 28.8 29.2765 28.8 29.57H29.8ZM29.8022 29.5337C29.823 29.5152 29.8485 29.5 29.91 29.5V28.5C29.6248 28.5 29.357 28.5915 29.1378 28.7863L29.8022 29.5337ZM29.91 29.5H34.35V28.5H29.91V29.5ZM34.35 29.5C34.4117 29.5 34.4276 29.5149 34.4373 29.5241L35.1227 28.7959C34.9058 28.5917 34.635 28.5 34.35 28.5V29.5ZM34.4478 29.5337C34.4525 29.5379 34.4544 29.5404 34.4549 29.541C34.4552 29.5415 34.4553 29.5416 34.4554 29.542C34.4556 29.5424 34.4566 29.5448 34.4577 29.5503C34.4588 29.5559 34.46 29.5655 34.46 29.58H35.46C35.46 29.2766 35.3481 28.996 35.1122 28.7863L34.4478 29.5337ZM34.46 29.58C34.46 29.5945 34.4588 29.6041 34.4577 29.6097C34.4566 29.6152 34.4556 29.6176 34.4554 29.618C34.4553 29.6184 34.4552 29.6185 34.4549 29.619C34.4544 29.6196 34.4525 29.6221 34.4478 29.6263L35.1122 30.3737C35.3481 30.164 35.46 29.8834 35.46 29.58H34.46ZM34.4492 29.6251C34.4405 29.6327 34.4206 29.65 34.35 29.65V30.65C34.6261 30.65 34.8928 30.5673 35.1108 30.3749L34.4492 29.6251ZM34.35 29.65H29.91V30.65H34.35V29.65ZM43.3045 33.9L42.8378 33.7205L42.8378 33.7205L43.3045 33.9ZM42.5945 35.05L42.2265 34.7115L42.2262 34.7118L42.5945 35.05ZM41.5145 35.82L41.3114 35.3631L41.3087 35.3643L41.5145 35.82ZM38.7945 35.82L39.0002 35.3643L39.0002 35.3643L38.7945 35.82ZM37.7145 35.05L37.3427 35.3846L37.3499 35.3922L37.7145 35.05ZM37.0145 33.9L37.4811 33.7205L37.4811 33.7205L37.0145 33.9ZM37.0145 31.1L37.4811 31.2795L37.4811 31.2795L37.0145 31.1ZM37.7145 29.96L37.3465 29.6215L37.3462 29.6218L37.7145 29.96ZM38.7945 29.18L39.0002 29.6357L39.0002 29.6357L38.7945 29.18ZM41.5145 29.18L41.3087 29.6357L41.3114 29.6369L41.5145 29.18ZM42.5945 29.96L42.2227 30.2946L42.2299 30.3022L42.5945 29.96ZM43.3045 31.1L42.8378 31.2795L42.8378 31.2795L43.3045 31.1ZM41.9845 31.29L41.5356 31.5103L41.5372 31.5136L41.9845 31.29ZM41.2445 30.42L41.5258 30.0067L41.5258 30.0067L41.2445 30.42ZM39.0645 30.42L39.3458 30.8333L39.3458 30.8333L39.0645 30.42ZM38.3245 31.28L37.8772 31.0564L37.874 31.0631L38.3245 31.28ZM38.3245 33.72L37.8723 33.9337L37.8772 33.9436L38.3245 33.72ZM39.0645 34.58L39.3458 34.1667L39.3458 34.1667L39.0645 34.58ZM41.2445 34.58L41.5258 34.9933L41.5258 34.9933L41.2445 34.58ZM41.9845 33.72L42.4317 33.9436L42.4333 33.9403L41.9845 33.72ZM43.0545 32.5C43.0545 32.9434 42.9808 33.3487 42.8378 33.7205L43.7711 34.0795C43.9615 33.5846 44.0545 33.0566 44.0545 32.5H43.0545ZM42.8378 33.7205C42.6931 34.0966 42.4895 34.4256 42.2265 34.7115L42.9624 35.3885C43.3128 35.0077 43.5824 34.5701 43.7711 34.0795L42.8378 33.7205ZM42.2262 34.7118C41.9742 34.9862 41.6711 35.2032 41.3114 35.3631L41.7175 36.2769C42.1978 36.0634 42.6147 35.7672 42.9627 35.3882L42.2262 34.7118ZM41.3087 35.3643C40.9655 35.5193 40.5831 35.6 40.1545 35.6V36.6C40.7124 36.6 41.2367 36.494 41.7202 36.2757L41.3087 35.3643ZM40.1545 35.6C39.7258 35.6 39.3434 35.5193 39.0002 35.3643L38.5887 36.2757C39.0722 36.494 39.5965 36.6 40.1545 36.6V35.6ZM39.0002 35.3643C38.646 35.2043 38.3401 34.986 38.079 34.7078L37.3499 35.3922C37.7021 35.7674 38.1162 36.0623 38.5887 36.2757L39.0002 35.3643ZM38.0861 34.7155C37.8284 34.4292 37.6266 34.0989 37.4811 33.7205L36.5478 34.0795C36.7356 34.5678 37.0005 35.0041 37.3428 35.3845L38.0861 34.7155ZM37.4811 33.7205C37.3381 33.3487 37.2645 32.9434 37.2645 32.5H36.2645C36.2645 33.0566 36.3574 33.5846 36.5478 34.0795L37.4811 33.7205ZM37.2645 32.5C37.2645 32.0566 37.3381 31.6513 37.4811 31.2795L36.5478 30.9205C36.3574 31.4154 36.2645 31.9434 36.2645 32.5H37.2645ZM37.4811 31.2795C37.6263 30.902 37.8272 30.5765 38.0827 30.2982L37.3462 29.6218C37.0017 29.9969 36.7359 30.4313 36.5478 30.9205L37.4811 31.2795ZM38.0824 30.2985C38.3434 30.0148 38.6482 29.7947 39.0002 29.6357L38.5887 28.7243C38.114 28.9387 37.6988 29.2385 37.3465 29.6215L38.0824 30.2985ZM39.0002 29.6357C39.3434 29.4807 39.7258 29.4 40.1545 29.4V28.4C39.5965 28.4 39.0722 28.506 38.5887 28.7243L39.0002 29.6357ZM40.1545 29.4C40.5831 29.4 40.9655 29.4807 41.3087 29.6357L41.7202 28.7243C41.2367 28.506 40.7124 28.4 40.1545 28.4V29.4ZM41.3114 29.6369C41.6689 29.7958 41.971 30.0147 42.2228 30.2945L42.9661 29.6255C42.6179 29.2387 42.2 28.9375 41.7175 28.7231L41.3114 29.6369ZM42.2299 30.3022C42.4907 30.58 42.6935 30.9043 42.8378 31.2795L43.7711 30.9205C43.5821 30.4291 43.3115 29.9933 42.959 29.6178L42.2299 30.3022ZM42.8378 31.2795C42.9808 31.6513 43.0545 32.0566 43.0545 32.5H44.0545C44.0545 31.9434 43.9615 31.4154 43.7711 30.9205L42.8378 31.2795ZM42.7545 32.5C42.7545 31.9843 42.65 31.5031 42.4317 31.0664L41.5372 31.5136C41.6789 31.7969 41.7545 32.1223 41.7545 32.5H42.7545ZM42.4333 31.0697C42.2182 30.6315 41.9163 30.2725 41.5258 30.0067L40.9631 30.8333C41.1993 30.9941 41.3907 31.2152 41.5356 31.5103L42.4333 31.0697ZM41.5258 30.0067C41.122 29.7318 40.6587 29.6 40.1545 29.6V30.6C40.4769 30.6 40.7402 30.6816 40.9631 30.8333L41.5258 30.0067ZM40.1545 29.6C39.6502 29.6 39.1869 29.7318 38.7831 30.0067L39.3458 30.8333C39.5687 30.6816 39.832 30.6 40.1545 30.6V29.6ZM38.7831 30.0067C38.3948 30.2711 38.093 30.6249 37.8772 31.0564L38.7717 31.5036C38.9159 31.2151 39.1075 30.9956 39.3458 30.8333L38.7831 30.0067ZM37.874 31.0631C37.6639 31.4993 37.5645 31.9817 37.5645 32.5H38.5645C38.5645 32.1116 38.6383 31.7807 38.775 31.4969L37.874 31.0631ZM37.5645 32.5C37.5645 33.013 37.6644 33.4937 37.8724 33.9337L38.7765 33.5063C38.6378 33.213 38.5645 32.8803 38.5645 32.5H37.5645ZM37.8772 33.9436C38.093 34.3751 38.3948 34.7289 38.7831 34.9933L39.3458 34.1667C39.1075 34.0044 38.9159 33.7849 38.7717 33.4964L37.8772 33.9436ZM38.7831 34.9933C39.1869 35.2682 39.6502 35.4 40.1545 35.4V34.4C39.832 34.4 39.5687 34.3184 39.3458 34.1667L38.7831 34.9933ZM40.1545 35.4C40.6587 35.4 41.122 35.2682 41.5258 34.9933L40.9631 34.1667C40.7402 34.3184 40.4769 34.4 40.1545 34.4V35.4ZM41.5258 34.9933C41.9141 34.7289 42.2159 34.3751 42.4317 33.9436L41.5372 33.4964C41.393 33.7849 41.2015 34.0044 40.9631 34.1667L41.5258 34.9933ZM42.4333 33.9403C42.65 33.4989 42.7545 33.0158 42.7545 32.5H41.7545C41.7545 32.8775 41.6789 33.2078 41.5356 33.4997L42.4333 33.9403ZM52.1923 33.9L51.7257 33.7205L51.7257 33.7205L52.1923 33.9ZM51.4823 35.05L51.1144 34.7115L51.1141 34.7118L51.4823 35.05ZM50.4023 35.82L50.1993 35.3631L50.1966 35.3643L50.4023 35.82ZM47.6823 35.82L47.8881 35.3643L47.8881 35.3643L47.6823 35.82ZM46.6023 35.05L46.2306 35.3846L46.2378 35.3922L46.6023 35.05ZM45.9023 33.9L46.369 33.7205L46.369 33.7205L45.9023 33.9ZM45.9023 31.1L46.369 31.2795L46.369 31.2795L45.9023 31.1ZM46.6023 29.96L46.2344 29.6215L46.2341 29.6218L46.6023 29.96ZM47.6823 29.18L47.8881 29.6357L47.8881 29.6357L47.6823 29.18ZM50.4023 29.18L50.1965 29.6357L50.1993 29.6369L50.4023 29.18ZM51.4823 29.96L51.1106 30.2946L51.1178 30.3022L51.4823 29.96ZM52.1923 31.1L51.7257 31.2795L51.7257 31.2795L52.1923 31.1ZM50.8723 31.29L50.4235 31.5103L50.4251 31.5136L50.8723 31.29ZM50.1323 30.42L50.4137 30.0067L50.4137 30.0067L50.1323 30.42ZM47.9523 30.42L48.2337 30.8333L48.2337 30.8333L47.9523 30.42ZM47.2123 31.28L46.7651 31.0564L46.7618 31.0631L47.2123 31.28ZM47.2123 33.72L46.7602 33.9337L46.7651 33.9436L47.2123 33.72ZM47.9523 34.58L48.2337 34.1667L48.2337 34.1667L47.9523 34.58ZM50.1323 34.58L50.4137 34.9933L50.4137 34.9933L50.1323 34.58ZM50.8723 33.72L51.3196 33.9436L51.3212 33.9403L50.8723 33.72ZM51.9423 32.5C51.9423 32.9434 51.8687 33.3487 51.7257 33.7205L52.659 34.0795C52.8494 33.5846 52.9423 33.0566 52.9423 32.5H51.9423ZM51.7257 33.7205C51.581 34.0966 51.3773 34.4256 51.1144 34.7115L51.8503 35.3885C52.2007 35.0077 52.4703 34.5701 52.659 34.0795L51.7257 33.7205ZM51.1141 34.7118C50.8621 34.9862 50.559 35.2032 50.1993 35.3631L50.6054 36.2769C51.0857 36.0634 51.5026 35.7672 51.8506 35.3882L51.1141 34.7118ZM50.1966 35.3643C49.8534 35.5193 49.471 35.6 49.0423 35.6V36.6C49.6003 36.6 50.1246 36.494 50.6081 36.2757L50.1966 35.3643ZM49.0423 35.6C48.6137 35.6 48.2313 35.5193 47.8881 35.3643L47.4766 36.2757C47.9601 36.494 48.4843 36.6 49.0423 36.6V35.6ZM47.8881 35.3643C47.5339 35.2043 47.228 34.986 46.9669 34.7078L46.2378 35.3922C46.59 35.7674 47.0041 36.0623 47.4766 36.2757L47.8881 35.3643ZM46.974 34.7155C46.7163 34.4292 46.5145 34.0989 46.369 33.7205L45.4357 34.0795C45.6235 34.5678 45.8884 35.0041 46.2307 35.3845L46.974 34.7155ZM46.369 33.7205C46.226 33.3487 46.1523 32.9434 46.1523 32.5H45.1523C45.1523 33.0566 45.2453 33.5846 45.4357 34.0795L46.369 33.7205ZM46.1523 32.5C46.1523 32.0566 46.226 31.6513 46.369 31.2795L45.4357 30.9205C45.2453 31.4154 45.1523 31.9434 45.1523 32.5H46.1523ZM46.369 31.2795C46.5142 30.902 46.7151 30.5765 46.9706 30.2982L46.2341 29.6218C45.8896 29.9969 45.6238 30.4313 45.4357 30.9205L46.369 31.2795ZM46.9703 30.2985C47.2313 30.0148 47.5361 29.7947 47.8881 29.6357L47.4766 28.7243C47.0019 28.9387 46.5867 29.2385 46.2344 29.6215L46.9703 30.2985ZM47.8881 29.6357C48.2313 29.4807 48.6137 29.4 49.0423 29.4V28.4C48.4843 28.4 47.9601 28.506 47.4766 28.7243L47.8881 29.6357ZM49.0423 29.4C49.471 29.4 49.8534 29.4807 50.1966 29.6357L50.6081 28.7243C50.1246 28.506 49.6003 28.4 49.0423 28.4V29.4ZM50.1993 29.6369C50.5568 29.7958 50.8589 30.0147 51.1107 30.2945L51.854 29.6255C51.5058 29.2387 51.0879 28.9375 50.6054 28.7231L50.1993 29.6369ZM51.1178 30.3022C51.3786 30.58 51.5814 30.9043 51.7257 31.2795L52.659 30.9205C52.47 30.4291 52.1994 29.9933 51.8469 29.6178L51.1178 30.3022ZM51.7257 31.2795C51.8687 31.6513 51.9423 32.0566 51.9423 32.5H52.9423C52.9423 31.9434 52.8494 31.4154 52.659 30.9205L51.7257 31.2795ZM51.6423 32.5C51.6423 31.9843 51.5379 31.5031 51.3196 31.0664L50.4251 31.5136C50.5668 31.7969 50.6423 32.1223 50.6423 32.5H51.6423ZM51.3212 31.0697C51.1061 30.6315 50.8042 30.2725 50.4137 30.0067L49.8509 30.8333C50.0872 30.9941 50.2786 31.2152 50.4235 31.5103L51.3212 31.0697ZM50.4137 30.0067C50.0099 29.7318 49.5466 29.6 49.0423 29.6V30.6C49.3648 30.6 49.6281 30.6816 49.8509 30.8333L50.4137 30.0067ZM49.0423 29.6C48.5381 29.6 48.0748 29.7318 47.6709 30.0067L48.2337 30.8333C48.4566 30.6816 48.7199 30.6 49.0423 30.6V29.6ZM47.6709 30.0067C47.2827 30.2711 46.9809 30.6249 46.7651 31.0564L47.6596 31.5036C47.8038 31.2151 47.9953 30.9956 48.2337 30.8333L47.6709 30.0067ZM46.7618 31.0631C46.5518 31.4993 46.4523 31.9817 46.4523 32.5H47.4523C47.4523 32.1116 47.5262 31.7807 47.6628 31.4969L46.7618 31.0631ZM46.4523 32.5C46.4523 33.013 46.5523 33.4937 46.7603 33.9337L47.6644 33.5063C47.5257 33.213 47.4523 32.8803 47.4523 32.5H46.4523ZM46.7651 33.9436C46.9809 34.3751 47.2827 34.7289 47.6709 34.9933L48.2337 34.1667C47.9953 34.0044 47.8038 33.7849 47.6596 33.4964L46.7651 33.9436ZM47.6709 34.9933C48.0748 35.2682 48.5381 35.4 49.0423 35.4V34.4C48.7199 34.4 48.4566 34.3184 48.2337 34.1667L47.6709 34.9933ZM49.0423 35.4C49.5466 35.4 50.0099 35.2682 50.4137 34.9933L49.8509 34.1667C49.6281 34.3184 49.3648 34.4 49.0423 34.4V35.4ZM50.4137 34.9933C50.802 34.7289 51.1038 34.3751 51.3196 33.9436L50.4251 33.4964C50.2809 33.7849 50.0893 34.0044 49.8509 34.1667L50.4137 34.9933ZM51.3212 33.9403C51.5379 33.4989 51.6423 33.0158 51.6423 32.5H50.6423C50.6423 32.8775 50.5668 33.2078 50.4235 33.4997L51.3212 33.9403ZM59.1802 35L58.8267 35.3536L58.8371 35.3639L58.8481 35.3737L59.1802 35ZM59.1802 35.84L59.5229 36.2041L59.5235 36.2035L59.1802 35.84ZM55.0602 35.83L54.6967 36.1733L54.7065 36.1837L54.7169 36.1935L55.0602 35.83ZM55.0702 29.18L55.4135 29.5435L55.4187 29.5386L55.4238 29.5336L55.0702 29.18ZM55.9502 29.18L55.5967 29.5336L55.6065 29.5434L55.6168 29.5526L55.9502 29.18ZM56.1402 35L55.8345 35.3956L56.6402 36.0182V35H56.1402ZM55.9202 34.83V34.33H54.4554L55.6145 35.2256L55.9202 34.83ZM58.7502 35.33C58.8029 35.33 58.8152 35.3421 58.8267 35.3536L59.5338 34.6464C59.3186 34.4312 59.0443 34.33 58.7502 34.33V35.33ZM58.8481 35.3737C58.8528 35.3779 58.8547 35.3804 58.8551 35.381C58.8555 35.3815 58.8555 35.3816 58.8557 35.382C58.8558 35.3824 58.8569 35.3848 58.8579 35.3903C58.859 35.3959 58.8602 35.4055 58.8602 35.42H59.8602C59.8602 35.1166 59.7484 34.836 59.5124 34.6263L58.8481 35.3737ZM58.8602 35.42C58.8602 35.442 58.8566 35.4509 58.8557 35.453C58.8548 35.455 58.8514 35.4628 58.8369 35.4765L59.5235 36.2035C59.7447 35.9947 59.8602 35.7227 59.8602 35.42H58.8602ZM58.8376 35.4759C58.8278 35.4851 58.8119 35.5 58.7502 35.5V36.5C59.0352 36.5 59.306 36.4083 59.5229 36.2041L58.8376 35.4759ZM58.7502 35.5H55.5002V36.5H58.7502V35.5ZM55.5002 35.5C55.4475 35.5 55.4257 35.4874 55.4035 35.4665L54.7169 36.1935C54.9347 36.3992 55.2063 36.5 55.5002 36.5V35.5ZM55.4237 35.4867C55.4028 35.4645 55.3902 35.4427 55.3902 35.39H54.3902C54.3902 35.6839 54.491 35.9555 54.6967 36.1733L55.4237 35.4867ZM55.3902 35.39V29.61H54.3902V35.39H55.3902ZM55.3902 29.61C55.3902 29.582 55.3949 29.5694 55.3965 29.5656C55.3978 29.5623 55.4011 29.5553 55.4135 29.5435L54.7269 28.8165C54.5014 29.0295 54.3902 29.3068 54.3902 29.61H55.3902ZM55.4238 29.5336C55.4402 29.5171 55.4616 29.5 55.5302 29.5V28.5C55.2255 28.5 54.9403 28.6029 54.7167 28.8264L55.4238 29.5336ZM55.5302 29.5C55.549 29.5 55.5641 29.501 55.5967 29.5336L56.3038 28.8264C56.0963 28.619 55.8315 28.5 55.5302 28.5V29.5ZM55.6168 29.5526C55.6317 29.566 55.6348 29.5733 55.6354 29.5746C55.6361 29.5761 55.6402 29.5855 55.6402 29.61H56.6402C56.6402 29.2976 56.5187 29.0177 56.2836 28.8074L55.6168 29.5526ZM55.6402 29.61V35H56.6402V29.61H55.6402ZM56.446 34.6044L56.226 34.4344L55.6145 35.2256L55.8345 35.3956L56.446 34.6044ZM55.9202 35.33H58.7502V34.33H55.9202V35.33ZM62.7955 35.93L62.6424 36.4061L62.6502 36.4084L62.7955 35.93ZM61.7255 35.31L62.0521 34.9314L62.0484 34.9283L61.7255 35.31ZM61.6155 34.38L61.252 34.0367L61.2514 34.0373L61.6155 34.38ZM62.3755 34.32L62.6915 33.9325L62.6878 33.9296L62.3755 34.32ZM63.1255 34.79L62.927 35.2489L62.9314 35.2508L63.1255 34.79ZM64.7355 34.84L64.9027 35.3112L64.9094 35.3088L64.916 35.3063L64.7355 34.84ZM65.2355 34.53L65.5891 34.8837L65.598 34.8744L65.2355 34.53ZM65.2455 33.57L65.6251 33.2446L65.6251 33.2446L65.2455 33.57ZM64.6955 33.22L64.5076 33.6835L64.5185 33.6876L64.6955 33.22ZM63.7555 32.99L63.6822 33.4846L63.686 33.4851L63.7555 32.99ZM62.8055 32.75L62.6139 33.212L62.6237 33.2158L62.8055 32.75ZM62.1155 32.33L61.7686 32.6902L61.7754 32.6967L61.7825 32.703L62.1155 32.33ZM61.7055 31.73L61.2412 31.9157L61.2431 31.9204L61.7055 31.73ZM61.8955 29.84L61.4933 29.5428L61.4892 29.5485L61.8955 29.84ZM62.8055 29.14L62.9995 29.6008L62.9995 29.6008L62.8055 29.14ZM65.2655 29.1L65.0946 29.57L65.1048 29.5735L65.2655 29.1ZM66.1755 29.59L65.8501 29.9696L65.8573 29.9758L65.8648 29.9817L66.1755 29.59ZM66.2955 30.52L66.659 30.8633L66.659 30.8633L66.2955 30.52ZM65.6255 30.61L65.2962 30.9863L65.3104 30.9987L65.3255 31.01L65.6255 30.61ZM65.1955 30.35L64.9786 30.8005L64.9854 30.8038L64.9924 30.8069L65.1955 30.35ZM64.6255 30.14L64.4818 30.6189L64.4892 30.6211L64.4966 30.6231L64.6255 30.14ZM63.3355 30.16L63.1633 29.6905L63.1581 29.6925L63.3355 30.16ZM62.9155 31.4L62.5345 31.7238L62.5432 31.7341L62.5525 31.7439L62.9155 31.4ZM63.4255 31.71L63.2545 32.1801L63.2674 32.1843L63.4255 31.71ZM64.2155 31.91L64.1195 32.4007L64.1253 32.4018L64.2155 31.91ZM65.2655 32.17L65.1074 32.6444L65.1105 32.6454L65.2655 32.17ZM66.0255 32.56L65.7131 32.9505L65.7213 32.9568L66.0255 32.56ZM66.4755 33.15L66.0139 33.3423L66.0159 33.347L66.4755 33.15ZM66.2655 35.13L65.8685 34.826L65.8685 34.826L66.2655 35.13ZM65.3155 35.85L65.1204 35.3896L65.1176 35.3908L65.3155 35.85ZM64.0555 35.6C63.6287 35.6 63.2588 35.5481 62.9407 35.4516L62.6502 36.4084C63.0788 36.5385 63.5489 36.6 64.0555 36.6V35.6ZM62.9485 35.454C62.6476 35.3573 62.3486 35.1873 62.0521 34.9314L61.3989 35.6886C61.7823 36.0194 62.1967 36.2627 62.6425 36.406L62.9485 35.454ZM62.0484 34.9283C62.0089 34.8948 61.9865 34.864 61.9727 34.8364L61.0783 35.2836C61.1578 35.4427 61.2687 35.5785 61.4025 35.6917L62.0484 34.9283ZM61.9727 34.8364C61.9566 34.8042 61.9555 34.787 61.9555 34.78H60.9555C60.9555 34.9597 61.001 35.1291 61.0783 35.2836L61.9727 34.8364ZM61.9555 34.78C61.9555 34.7561 61.9587 34.7448 61.9796 34.7227L61.2514 34.0373C61.0589 34.2419 60.9555 34.4972 60.9555 34.78H61.9555ZM61.979 34.7233C61.9926 34.7088 62.0004 34.7054 62.0024 34.7046C62.0045 34.7037 62.0134 34.7 62.0355 34.7V33.7C61.7328 33.7 61.4608 33.8156 61.252 34.0367L61.979 34.7233ZM62.0355 34.7C62.0452 34.7 62.0487 34.7014 62.0491 34.7015C62.0495 34.7017 62.054 34.7031 62.0631 34.7104L62.6878 33.9296C62.5002 33.7795 62.277 33.7 62.0355 33.7V34.7ZM62.0594 34.7074C62.341 34.9372 62.6301 35.1205 62.927 35.2489L63.3239 34.3311C63.1275 34.2462 62.9166 34.1162 62.6915 33.9326L62.0594 34.7074ZM62.9314 35.2508C63.263 35.3904 63.6432 35.45 64.0555 35.45V34.45C63.7344 34.45 63.4946 34.4029 63.3195 34.3292L62.9314 35.2508ZM64.0555 35.45C64.3521 35.45 64.6361 35.4058 64.9027 35.3112L64.5683 34.3688C64.4215 34.4208 64.2522 34.45 64.0555 34.45V35.45ZM64.916 35.3063C65.1726 35.207 65.4029 35.0696 65.589 34.8836L64.8819 34.1764C64.8147 34.2437 64.7117 34.313 64.555 34.3737L64.916 35.3063ZM65.598 34.8744C65.803 34.6586 65.9255 34.3886 65.9255 34.08H64.9255C64.9255 34.1047 64.9213 34.1347 64.873 34.1856L65.598 34.8744ZM65.9255 34.08C65.9255 33.7715 65.8296 33.4832 65.6251 33.2446L64.8658 33.8954C64.9014 33.9368 64.9255 33.9885 64.9255 34.08H65.9255ZM65.6251 33.2446C65.4321 33.0194 65.1658 32.8634 64.8724 32.7524L64.5185 33.6876C64.7184 33.7633 64.8189 33.8406 64.8658 33.8954L65.6251 33.2446ZM64.8833 32.7566C64.586 32.6361 64.2294 32.5516 63.825 32.4949L63.686 33.4851C64.0416 33.5351 64.3116 33.6039 64.5076 33.6834L64.8833 32.7566ZM63.8287 32.4954C63.4974 32.4463 63.2184 32.3744 62.9872 32.2842L62.6237 33.2158C62.9392 33.3389 63.2935 33.427 63.6822 33.4846L63.8287 32.4954ZM62.997 32.2881C62.7662 32.1925 62.5865 32.0802 62.4485 31.957L61.7825 32.703C62.0178 32.9131 62.298 33.0809 62.614 33.2119L62.997 32.2881ZM62.4623 31.9698C62.3311 31.8435 62.2343 31.701 62.1678 31.5396L61.2431 31.9204C61.3633 32.2123 61.5398 32.4698 61.7686 32.6902L62.4623 31.9698ZM62.1697 31.5443C62.1031 31.3777 62.0655 31.1819 62.0655 30.95H61.0655C61.0655 31.2914 61.1212 31.6156 61.2412 31.9157L62.1697 31.5443ZM62.0655 30.95C62.0655 30.6052 62.1514 30.341 62.3017 30.1315L61.4892 29.5485C61.1995 29.9524 61.0655 30.4282 61.0655 30.95H62.0655ZM62.2976 30.1372C62.4665 29.9086 62.6953 29.7289 62.9995 29.6008L62.6114 28.6792C62.1556 28.8711 61.7778 29.1581 61.4934 29.5428L62.2976 30.1372ZM62.9995 29.6008C63.3113 29.4695 63.6644 29.4 64.0655 29.4V28.4C63.5465 28.4 63.0596 28.4905 62.6114 28.6792L62.9995 29.6008ZM64.0655 29.4C64.4469 29.4 64.7884 29.4586 65.0946 29.5699L65.4363 28.6301C65.0092 28.4748 64.5507 28.4 64.0655 28.4V29.4ZM65.1048 29.5735C65.4341 29.6852 65.6767 29.8211 65.8501 29.9696L66.5009 29.2104C66.2075 28.9589 65.8435 28.7681 65.4261 28.6265L65.1048 29.5735ZM65.8648 29.9817C65.9694 30.0647 65.9655 30.1081 65.9655 30.12H66.9655C66.9655 29.7319 66.7683 29.422 66.4862 29.1983L65.8648 29.9817ZM65.9655 30.12C65.9655 30.127 65.9645 30.1304 65.9628 30.1344C65.9607 30.1395 65.9535 30.1539 65.932 30.1767L66.659 30.8633C66.8481 30.6631 66.9655 30.4107 66.9655 30.12H65.9655ZM65.932 30.1767C65.923 30.1862 65.9162 30.1918 65.912 30.1949C65.9079 30.1978 65.9057 30.1989 65.9053 30.199C65.9049 30.1992 65.9048 30.1992 65.9043 30.1994C65.9037 30.1995 65.901 30.2 65.8955 30.2V31.2C66.1977 31.2 66.4592 31.0748 66.659 30.8633L65.932 30.1767ZM65.8955 30.2C65.8955 30.2 65.8955 30.2 65.8955 30.2C65.8955 30.2 65.8955 30.2 65.8955 30.2C65.8955 30.2 65.8955 30.2 65.8955 30.2C65.8955 30.2 65.8955 30.2 65.8956 30.2C65.8956 30.2 65.8957 30.2 65.8958 30.2C65.896 30.2 65.8964 30.2 65.8968 30.2001C65.8976 30.2001 65.8988 30.2003 65.9003 30.2005C65.9034 30.201 65.9071 30.2018 65.9111 30.2032C65.9198 30.2061 65.9248 30.2095 65.9255 30.21L65.3255 31.01C65.492 31.1349 65.6873 31.2 65.8955 31.2V30.2ZM65.9547 30.2337C65.7988 30.0973 65.608 29.9862 65.3985 29.8931L64.9924 30.8069C65.143 30.8738 65.2388 30.9361 65.2962 30.9863L65.9547 30.2337ZM65.4124 29.8995C65.2031 29.7987 64.9835 29.718 64.7543 29.6569L64.4966 30.6231C64.6674 30.6687 64.8278 30.7279 64.9786 30.8005L65.4124 29.8995ZM64.7691 29.6611C64.5317 29.5899 64.2962 29.55 64.0655 29.55V30.55C64.1814 30.55 64.3192 30.5701 64.4818 30.6189L64.7691 29.6611ZM64.0655 29.55C63.7391 29.55 63.4339 29.5914 63.1633 29.6906L63.5076 30.6294C63.6371 30.582 63.8185 30.55 64.0655 30.55V29.55ZM63.1581 29.6925C62.9036 29.7891 62.6728 29.9351 62.503 30.1502L63.2879 30.7698C63.3181 30.7316 63.3807 30.6776 63.5128 30.6275L63.1581 29.6925ZM62.503 30.1502C62.3309 30.3682 62.2455 30.6249 62.2455 30.9H63.2455C63.2455 30.8418 63.26 30.8052 63.2879 30.7698L62.503 30.1502ZM62.2455 30.9C62.2455 31.2007 62.3334 31.4873 62.5345 31.7238L63.2964 31.0762C63.2708 31.0461 63.2455 30.9993 63.2455 30.9H62.2455ZM62.5525 31.7439C62.7409 31.9428 62.9854 32.082 63.2546 32.1799L63.5963 31.2401C63.4255 31.178 63.33 31.1106 63.2784 31.0561L62.5525 31.7439ZM63.2674 32.1843C63.5133 32.2663 63.7985 32.3379 64.1195 32.4007L64.3115 31.4193C64.0191 31.3621 63.7777 31.3004 63.5836 31.2357L63.2674 32.1843ZM64.1253 32.4018C64.5084 32.472 64.8348 32.5535 65.1074 32.6443L65.4236 31.6957C65.0961 31.5865 64.7225 31.4946 64.3056 31.4182L64.1253 32.4018ZM65.1105 32.6454C65.3742 32.7314 65.5704 32.8363 65.7131 32.9504L66.3378 32.1696C66.0805 31.9637 65.7701 31.8086 65.4205 31.6946L65.1105 32.6454ZM65.7213 32.9568C65.8496 33.0552 65.9465 33.1804 66.0139 33.3423L66.937 32.9577C66.8045 32.6396 66.6014 32.3715 66.3297 32.1632L65.7213 32.9568ZM66.0159 33.347C66.0818 33.5008 66.1255 33.716 66.1255 34.01H67.1255C67.1255 33.624 67.0691 33.2659 66.935 32.953L66.0159 33.347ZM66.1255 34.01C66.1255 34.3448 66.0351 34.6085 65.8685 34.826L66.6624 35.434C66.9759 35.0248 67.1255 34.5419 67.1255 34.01H66.1255ZM65.8685 34.826C65.6854 35.065 65.4408 35.2539 65.1204 35.3896L65.5105 36.3104C65.9768 36.1128 66.3655 35.8217 66.6624 35.434L65.8685 34.826ZM65.1176 35.3908C64.7981 35.5285 64.446 35.6 64.0555 35.6V36.6C64.5716 36.6 65.0595 36.5048 65.5134 36.3092L65.1176 35.3908Z" fill="#1ABC9C" mask="url(#path-4-outside-1_7_27)"/>
</svg>
